<svg width="2208" height="3249" xmlns="http://www.w3.org/2000/svg" xmlns:xlink="http://www.w3.org/1999/xlink" xml:space="preserve" overflow="hidden"><defs><clipPath id="clip0"><rect x="1096" y="-387" width="2208" height="3249"/></clipPath></defs><g clip-path="url(#clip0)" transform="translate(-1096 387)"><rect x="1096" y="-387" width="2208" height="3249" fill="#FFFFFF"/><path d="M1226 1237.5C1226 699.298 1662.07 263 2200 263 2737.93 263 3174 699.298 3174 1237.5 3174 1775.7 2737.93 2212 2200 2212 1662.07 2212 1226 1775.7 1226 1237.5Z" fill="#00985F" fill-rule="evenodd"/><path d="M1291 1237.5C1291 735.197 1697.97 328 2200 328 2702.03 328 3109 735.197 3109 1237.5 3109 1739.8 2702.03 2147 2200 2147 1697.97 2147 1291 1739.8 1291 1237.5Z" fill="#FFFFFF" fill-rule="evenodd"/><path d="M1356 1237.5C1356 771.095 1733.87 393 2200 393 2666.13 393 3044 771.095 3044 1237.5 3044 1703.9 2666.13 2082 2200 2082 1733.87 2082 1356 1703.9 1356 1237.5Z" fill="#00985F" fill-rule="evenodd"/><path d="M409.572 189.01 409.572 189.01 586.332 189.01 715.503-0.57327 819.572-0.57327 639.151 270.447C699.284 280.201 759.181 343.046 759.171 419.704L759.171 979.551C759.181 1058.7 692.765 1131.27 602.544 1131.16L410.357 1131.43 410.357 1131.43 216.6 1131.16C126.306 1131.27 59.8901 1058.7 59.9737 979.551L59.9737 419.704C59.8901 343.046 119.787 280.201 179.993 270.447L-0.428162-0.57327 103.641-0.57327 232.812 189.01 409.311 189.01 409.572 189.01" fill="#FFFFFF" fill-rule="evenodd" transform="matrix(1 0 0 -1 1790 1855)"/><path d="M42.9987-1.4231C19.0226-1.47799-0.495825 17.9868-0.369666 42.0769-0.495825 66.0152 19.0226 85.4799 42.9987 85.5769 67.1956 85.4799 86.719 66.0152 86.6297 42.0769 86.719 17.9868 67.1956-1.47799 42.9987-1.4231" fill="#FFFFFF" fill-rule="evenodd" transform="matrix(1 0 0 -1 2099 707)"/><path d="M43.0113-1.4231C67.1039-1.47799 86.5637 17.9868 86.5113 42.0769 86.5637 66.0152 67.1039 85.4799 43.0113 85.5769 19.0758 85.4799-0.389258 66.0152-0.48869 42.0769-0.389258 17.9868 19.0758-1.47799 43.0113-1.4231" fill="#FFFFFF" fill-rule="evenodd" transform="matrix(1 0 0 -1 2214 707)"/><path d="M67.7409-0.376072C105.691-0.344524 136.374 30.3406 136.371 68.2542 136.374 106.04 105.691 136.723 67.7409 136.624 29.989 136.723-0.694048 106.04-0.628766 68.2542-0.694048 30.3406 29.989-0.344524 67.7409-0.376072" fill="#00985F" fill-rule="evenodd" transform="matrix(1 0 0 -1 2326 1502)"/><path d="M265.701-0.950403 265.701-0.950403 453.586-0.950403C496.755-0.82241 532.082 28.7887 531.566 77.2211L531.566 177.877C531.684 219.643 504.606 256.146 453.586 256.049L265.701 256.049 265.439 256.049 77.8159 256.049C26.7232 256.146-0.355507 219.643-0.425982 177.877L-0.425982 77.2211C-0.752986 28.7887 34.5734-0.82241 77.8159-0.950403L265.439-0.950403 265.701-0.950403" fill="#00985F" fill-rule="evenodd" transform="matrix(1 0 0 -1 1934 1139)"/><path d="M101.571-1.22772 101.571-1.22772 177.612-1.22772C192.157-1.32706 203.474 10.4515 203.571 24.0882L203.571 68.4563C203.474 82.2232 191.502 93.7328 177.612 93.7719L101.571 93.7719 101.571 93.7719 101.309 93.7719 25.2673 93.7719C11.567 93.7328-0.405821 82.2232-0.42936 68.4563L-0.42936 24.0882C-0.405821 10.4515 10.9113-1.32706 25.2673-1.22772L101.309-1.22772 101.571-1.22772" fill="#00985F" fill-rule="evenodd" transform="matrix(1 0 0 -1 2098 851)"/><path d="M68.1457-0.376072C30.3595-0.344524-0.322661 30.3406-0.223957 68.2542-0.322661 106.04 30.3595 136.723 68.1457 136.624 106.062 136.723 136.745 106.04 136.776 68.2542 136.745 30.3406 106.062-0.344524 68.1457-0.376072" fill="#00985F" fill-rule="evenodd" transform="matrix(1 0 0 -1 1935 1502)"/></g></svg>