<svg width="2208" height="2989" xmlns="http://www.w3.org/2000/svg" xmlns:xlink="http://www.w3.org/1999/xlink" xml:space="preserve" overflow="hidden"><defs><clipPath id="clip0"><rect x="1096" y="-257" width="2208" height="2989"/></clipPath></defs><g clip-path="url(#clip0)" transform="translate(-1096 257)"><rect x="1096" y="133" width="2208" height="2209" fill="#FFFFFF"/><path d="M1226 1237.5C1226 699.298 1662.07 263 2200 263 2737.93 263 3174 699.298 3174 1237.5 3174 1775.7 2737.93 2212 2200 2212 1662.07 2212 1226 1775.7 1226 1237.5Z" fill="#00985F" fill-rule="evenodd"/><path d="M1291 1237.5C1291 735.197 1697.97 328 2200 328 2702.03 328 3109 735.197 3109 1237.5 3109 1739.8 2702.03 2147 2200 2147 1697.97 2147 1291 1739.8 1291 1237.5Z" fill="#FFFFFF" fill-rule="evenodd"/><path d="M1356 1237.5C1356 771.095 1733.87 393 2200 393 2666.13 393 3044 771.095 3044 1237.5 3044 1703.9 2666.13 2082 2200 2082 1733.87 2082 1356 1703.9 1356 1237.5Z" fill="#00985F" fill-rule="evenodd"/><path d="M495.279 1202.29C383.888 1202.24 230.148 1170.44 166.471 1143.94 102.916 1117.43 60.5052 1090.93 47.2812 1024.77L-0.560745 657.288-0.560745 151.278 81.8489 151.278 81.8489 71.9202C81.7107-24.9266 223.35-24.9266 223.438 71.9202L223.438 151.278 484.77 151.278 485.6 151.278 757.441 151.278 757.441 71.9202C757.529-24.9266 899.168-24.9266 899.306 71.9202L899.306 151.278 981.439 151.278 981.439 657.288 933.598 1024.77C920.373 1090.93 877.963 1117.43 814.408 1143.94 750.732 1170.44 596.991 1202.24 485.6 1202.29" fill="#FFFFFF" fill-rule="evenodd" transform="matrix(1 0 0 -1 1710 1827)"/><path d="M66.9176-0.385633C104.554-0.490806 135.022 29.9832 135.056 67.4756 135.022 105.146 104.554 135.62 66.9176 135.614 29.3916 135.62-1.07956 105.146-0.944024 67.4756-1.07956 29.9832 29.3916-0.490806 66.9176-0.385633" fill="#00985F" fill-rule="evenodd" transform="matrix(1 0 0 -1 2471 1516)"/><path d="M67.9594-0.385633C30.3229-0.490806-0.14529 29.9832-0.178901 67.4756-0.14529 105.146 30.3229 135.62 67.9594 135.614 105.485 135.62 135.956 105.146 135.821 67.4756 135.956 29.9832 105.485-0.490806 67.9594-0.385633" fill="#00985F" fill-rule="evenodd" transform="matrix(1 0 0 -1 1795 1516)"/><path d="M226.319-1.41222 29.2558-1.41222C-10.5002-1.48884-10.5002 57.6917 29.2558 57.5876L226.596 57.5876 433.623 57.5876C473.378 57.6917 473.378-1.48884 433.623-1.41222L226.319-1.41222" fill="#00985F" fill-rule="evenodd" transform="matrix(1 0 0 -1 1969 776)"/><path d="M399.326 369.985 95.5466 369.985C53.4344 369.979 42.4664 348.645 37.4995 316.353L0.183583 49.852C-3.20783 24.3961 4.17551-0.946178 39.4345-1.01544L399.602-1.01544 769.445-1.01544C804.704-0.946178 812.087 24.3961 808.696 49.852L771.38 316.353C766.413 348.645 755.444 369.979 713.333 369.985L399.326 369.985" fill="#00985F" fill-rule="evenodd" transform="matrix(1 0 0 -1 1796 1207)"/><rect x="1096" y="-257" width="2208" height="2989" fill="#FFFFFF"/><path d="M1226 1237.5C1226 699.298 1662.07 263 2200 263 2737.93 263 3174 699.298 3174 1237.5 3174 1775.7 2737.93 2212 2200 2212 1662.07 2212 1226 1775.7 1226 1237.5Z" fill="#00985F" fill-rule="evenodd"/><path d="M1291 1237.5C1291 735.197 1697.97 328 2200 328 2702.03 328 3109 735.197 3109 1237.5 3109 1739.8 2702.03 2147 2200 2147 1697.97 2147 1291 1739.8 1291 1237.5Z" fill="#FFFFFF" fill-rule="evenodd"/><path d="M1356 1237.5C1356 771.095 1733.87 393 2200 393 2666.13 393 3044 771.095 3044 1237.5 3044 1703.9 2666.13 2082 2200 2082 1733.87 2082 1356 1703.9 1356 1237.5Z" fill="#00985F" fill-rule="evenodd"/><path d="M495.279 1202.29C383.888 1202.24 230.148 1170.44 166.471 1143.94 102.916 1117.43 60.5052 1090.93 47.2812 1024.77L-0.560745 657.288-0.560745 151.278 81.8489 151.278 81.8489 71.9202C81.7107-24.9266 223.35-24.9266 223.438 71.9202L223.438 151.278 484.77 151.278 485.6 151.278 757.441 151.278 757.441 71.9202C757.529-24.9266 899.168-24.9266 899.306 71.9202L899.306 151.278 981.439 151.278 981.439 657.288 933.598 1024.77C920.373 1090.93 877.963 1117.43 814.408 1143.94 750.732 1170.44 596.991 1202.24 485.6 1202.29" fill="#FFFFFF" fill-rule="evenodd" transform="matrix(1 0 0 -1 1710 1827)"/><path d="M66.9176-0.385633C104.554-0.490806 135.022 29.9832 135.056 67.4756 135.022 105.146 104.554 135.62 66.9176 135.614 29.3916 135.62-1.07956 105.146-0.944024 67.4756-1.07956 29.9832 29.3916-0.490806 66.9176-0.385633" fill="#00985F" fill-rule="evenodd" transform="matrix(1 0 0 -1 2471 1516)"/><path d="M67.9594-0.385633C30.3229-0.490806-0.14529 29.9832-0.178901 67.4756-0.14529 105.146 30.3229 135.62 67.9594 135.614 105.485 135.62 135.956 105.146 135.821 67.4756 135.956 29.9832 105.485-0.490806 67.9594-0.385633" fill="#00985F" fill-rule="evenodd" transform="matrix(1 0 0 -1 1795 1516)"/><path d="M226.319-1.41222 29.2558-1.41222C-10.5002-1.48884-10.5002 57.6917 29.2558 57.5876L226.596 57.5876 433.623 57.5876C473.378 57.6917 473.378-1.48884 433.623-1.41222L226.319-1.41222" fill="#00985F" fill-rule="evenodd" transform="matrix(1 0 0 -1 1969 776)"/><path d="M399.326 369.985 95.5466 369.985C53.4344 369.979 42.4664 348.645 37.4995 316.353L0.183583 49.852C-3.20783 24.3961 4.17551-0.946178 39.4345-1.01544L399.602-1.01544 769.445-1.01544C804.704-0.946178 812.087 24.3961 808.696 49.852L771.38 316.353C766.413 348.645 755.444 369.979 713.333 369.985L399.326 369.985" fill="#00985F" fill-rule="evenodd" transform="matrix(1 0 0 -1 1796 1207)"/></g></svg>